# xmcd
#
# Track frame offsets:
#	150
#	14849
#	22832
#	40782
#	54533
#	68605
#	80197
#	95355
#	114233
#	130294
#	146157
#	162590
#
# Disc length: 2494 seconds
#
# Revision: 0
# Processed by: cddbd v1.4PL0 Copyright (c) Steve Scherf et al.
# Submitted via: dBpowerAMP V4.0
#
DISCID=a209bc0c
DTITLE=Roseval and Roserito - Roseval and Roserito
DYEAR=2002
DGENRE=Country
TTITLE0=Minha expressão
TTITLE1=Caminhando sobre os campos
TTITLE2=Humilde desabafo
TTITLE3=Pra quê prender?
TTITLE4=Amante oculto
TTITLE5=Falso ateu
TTITLE6=No calor dos teus abraços
TTITLE7=A lei da compensação
TTITLE8=Amaremos
TTITLE9=Separados
TTITLE10=O Brasil da impunidade
TTITLE11=Lição de caboclo
EXTD=Album de Rosival and Roserito, uma dupla sertaneja da cidade de Aparecida de Goiânia. Composições de Divino Carlos de Mendonça.
EXTT0=
EXTT1=
EXTT2=
EXTT3=
EXTT4=
EXTT5=
EXTT6=
EXTT7=
EXTT8=
EXTT9=
EXTT10=
EXTT11=
PLAYORDER=
